<svg width="141" height="138" viewBox="0 0 141 138" fill="none" xmlns="http://www.w3.org/2000/svg">
<g clip-path="url(#clip0_424_723)">
<path d="M89.5126 31.0358H51.5192C50.6534 31.0368 49.8234 31.3822 49.2112 31.996C48.5989 32.6098 48.2545 33.4421 48.2535 34.3102V118.976L47.8181 119.109L38.4977 121.971C38.056 122.106 37.5789 122.06 37.1711 121.842C36.7633 121.625 36.4582 121.254 36.3228 120.812L8.59889 30.012C8.46397 29.5691 8.50995 29.0906 8.72673 28.6817C8.94351 28.2727 9.31335 27.9668 9.75497 27.8312L24.1177 23.4217L65.7556 10.6427L80.1182 6.23316C80.3368 6.16571 80.5665 6.14214 80.7942 6.1638C81.0218 6.18546 81.243 6.25193 81.445 6.35939C81.647 6.46685 81.8259 6.6132 81.9715 6.79007C82.117 6.96693 82.2264 7.17084 82.2932 7.39012L89.3798 30.5992L89.5126 31.0358Z" fill="#E2E2E2"/>
<path d="M97.8033 30.5993L89.2623 2.62709C89.1202 2.16102 88.8879 1.7276 88.5787 1.35158C88.2695 0.975562 87.8894 0.664325 87.4602 0.435653C87.0309 0.20698 86.5609 0.0653517 86.0771 0.0188662C85.5932 -0.0276194 85.105 0.0219489 84.6403 0.164733L64.4472 6.36211L22.8115 19.1433L2.61844 25.3428C1.68038 25.6316 0.894928 26.2818 0.434492 27.1507C-0.0259448 28.0196 -0.123748 29.0361 0.162554 29.9772L29.3538 125.575C29.5864 126.335 30.0556 126.999 30.6928 127.472C31.3299 127.945 32.1013 128.2 32.8939 128.201C33.2607 128.201 33.6254 128.146 33.9759 128.037L47.8182 123.789L48.2536 123.654V123.198L47.8182 123.331L33.8474 127.62C33.0194 127.873 32.1251 127.787 31.3607 127.38C30.5962 126.972 30.024 126.278 29.7696 125.448L0.580656 29.8484C0.454618 29.4373 0.410691 29.0054 0.451388 28.5773C0.492084 28.1492 0.616602 27.7333 0.817818 27.3535C1.01903 26.9737 1.293 26.6375 1.62401 26.364C1.95502 26.0905 2.33659 25.8852 2.74685 25.7598L22.9399 19.5602L64.5757 6.78124L84.7688 0.58168C85.08 0.486459 85.4035 0.437909 85.7288 0.437605C86.4271 0.439177 87.1065 0.664883 87.6675 1.08167C88.2285 1.49845 88.6417 2.0844 88.8466 2.75371L97.3483 30.5993L97.4833 31.0359H97.9362L97.8033 30.5993Z" fill="#2E2E2E"/>
<path d="M26.7095 27.9026C26.2899 27.9023 25.8814 27.7671 25.544 27.517C25.2065 27.2669 24.958 26.9149 24.8347 26.5128L22.0304 17.3287C21.9551 17.082 21.9289 16.8229 21.9535 16.566C21.978 16.3092 22.0528 16.0597 22.1735 15.8319C22.2942 15.604 22.4585 15.4022 22.657 15.2381C22.8556 15.0739 23.0844 14.9505 23.3304 14.875L61.635 3.11688C62.1319 2.96484 62.6686 3.01669 63.1274 3.26105C63.5863 3.50541 63.9297 3.92231 64.0822 4.42025L66.8865 13.6044C67.038 14.1026 66.9863 14.6408 66.7426 15.1008C66.4989 15.5608 66.0831 15.9051 65.5866 16.0582L27.2819 27.8163C27.0964 27.8734 26.9035 27.9025 26.7095 27.9026Z" fill="#2E2E2E"/>
<path d="M41.3992 9.81332C43.8041 9.81332 45.7535 7.85864 45.7535 5.44743C45.7535 3.03622 43.8041 1.08154 41.3992 1.08154C38.9944 1.08154 37.045 3.03622 37.045 5.44743C37.045 7.85864 38.9944 9.81332 41.3992 9.81332Z" fill="#2E2E2E"/>
<path d="M41.3992 8.21209C42.922 8.21209 44.1565 6.97433 44.1565 5.44748C44.1565 3.92062 42.922 2.68286 41.3992 2.68286C39.8764 2.68286 38.642 3.92062 38.642 5.44748C38.642 6.97433 39.8764 8.21209 41.3992 8.21209Z" fill="#FDFDFD"/>
<path d="M131.203 127.085H57.6153C57.1247 127.085 56.6543 126.889 56.3073 126.541C55.9604 126.193 55.7653 125.722 55.7647 125.23V36.8205C55.7653 36.3286 55.9604 35.857 56.3073 35.5091C56.6543 35.1612 57.1247 34.9656 57.6153 34.965H131.203C131.694 34.9656 132.164 35.1613 132.511 35.5091C132.858 35.857 133.053 36.3286 133.053 36.8205V125.23C133.053 125.722 132.858 126.193 132.511 126.541C132.164 126.889 131.694 127.085 131.203 127.085Z" fill="#E2E2E2"/>
<path d="M97.3482 30.5992H51.5192C50.538 30.6006 49.5974 30.992 48.9036 31.6876C48.2098 32.3833 47.8194 33.3264 47.8181 34.3102V123.331L48.2535 123.197V34.3102C48.2545 33.4421 48.5989 32.6098 49.2112 31.996C49.8234 31.3821 50.6534 31.0368 51.5192 31.0358H97.4832L97.3482 30.5992ZM137.299 30.5992H51.5192C50.538 30.6006 49.5974 30.992 48.9036 31.6876C48.2098 32.3833 47.8194 33.3264 47.8181 34.3102V134.289C47.8194 135.273 48.2098 136.216 48.9036 136.912C49.5974 137.607 50.538 137.999 51.5192 138H137.299C138.28 137.999 139.221 137.607 139.914 136.912C140.608 136.216 140.999 135.273 141 134.289V34.3102C140.999 33.3264 140.608 32.3833 139.914 31.6876C139.221 30.992 138.28 30.6006 137.299 30.5992ZM140.565 134.289C140.564 135.157 140.219 135.989 139.607 136.603C138.995 137.217 138.165 137.562 137.299 137.563H51.5192C50.6534 137.562 49.8234 137.217 49.2112 136.603C48.5989 135.989 48.2545 135.157 48.2535 134.289V34.3102C48.2545 33.4421 48.5989 32.6098 49.2112 31.996C49.8234 31.3821 50.6534 31.0368 51.5192 31.0358H137.299C138.165 31.0368 138.995 31.3821 139.607 31.996C140.219 32.6098 140.564 33.4421 140.565 34.3102V134.289Z" fill="#2E2E2E"/>
<path d="M114.439 40.2041H74.3793C73.8598 40.2035 73.3618 39.9964 72.9944 39.628C72.6271 39.2597 72.4205 38.7603 72.4199 38.2395V28.6345C72.4205 28.1136 72.6271 27.6143 72.9944 27.2459C73.3618 26.8776 73.8598 26.6704 74.3793 26.6699H114.439C114.958 26.6704 115.456 26.8776 115.824 27.2459C116.191 27.6143 116.398 28.1136 116.398 28.6345V38.2395C116.398 38.7603 116.191 39.2597 115.824 39.628C115.456 39.9964 114.958 40.2035 114.439 40.2041Z" fill="#2E2E2E"/>
<path d="M94.409 27.3247C96.8139 27.3247 98.7633 25.3701 98.7633 22.9588C98.7633 20.5476 96.8139 18.593 94.409 18.593C92.0042 18.593 90.0547 20.5476 90.0547 22.9588C90.0547 25.3701 92.0042 27.3247 94.409 27.3247Z" fill="#2E2E2E"/>
<path d="M94.409 25.6181C95.8738 25.6181 97.0612 24.4275 97.0612 22.9589C97.0612 21.4902 95.8738 20.2996 94.409 20.2996C92.9443 20.2996 91.7569 21.4902 91.7569 22.9589C91.7569 24.4275 92.9443 25.6181 94.409 25.6181Z" fill="#FDFDFD"/>
<path d="M100.276 73.5943C100.276 71.8383 99.6983 70.4294 98.5428 69.3676C97.3872 68.3058 95.8552 67.7749 93.9466 67.7749C92.77 67.7749 91.7054 68.0305 90.7527 68.5418C89.8 69.0531 88.978 69.798 88.2867 70.7765C87.6375 71.7158 86.7546 72.2573 85.638 72.401C84.5215 72.5448 83.5583 72.2483 82.7484 71.5116C82.1804 70.9807 81.8664 70.3273 81.8063 69.5513C81.7463 68.7754 81.9386 68.0403 82.3833 67.3461C83.6816 65.3859 85.3354 63.865 87.3446 62.7837C89.3537 61.7023 91.5544 61.1608 93.9466 61.1591C97.8822 61.1591 101.078 62.2822 103.533 64.5283C105.989 66.7744 107.216 69.7147 107.214 73.3493C107.214 75.187 106.829 76.8409 106.058 78.3111C105.287 79.7813 103.867 81.5169 101.798 83.518C100.296 84.9473 99.282 86.0605 98.7546 86.8577C98.2271 87.6549 97.8822 88.5631 97.7199 89.5824C97.5576 90.5625 97.1414 91.3793 96.4711 92.0327C95.8008 92.6861 94.9999 93.0128 94.0683 93.0128C93.1368 93.0128 92.3359 92.6967 91.6656 92.0646C90.9953 91.4324 90.6602 90.6458 90.6602 89.7049C90.6602 88.1122 91.0051 86.6527 91.6948 85.3263C92.3846 83.9998 93.5409 82.6007 95.1638 81.1289C97.2331 79.2912 98.6028 77.8725 99.2731 76.8728C99.9433 75.8731 100.278 74.7802 100.276 73.5943ZM93.9466 107.715C92.6077 107.715 91.4619 107.235 90.5093 106.276C89.5566 105.317 89.0795 104.163 89.0778 102.814C89.0762 101.465 89.5534 100.311 90.5093 99.3541C91.4652 98.3969 92.611 97.9166 93.9466 97.9134C95.2823 97.9101 96.4289 98.3904 97.3864 99.3541C98.344 100.318 98.8203 101.471 98.8154 102.814C98.8105 104.157 98.3342 105.311 97.3864 106.276C96.4386 107.242 95.292 107.721 93.9466 107.715Z" fill="#2E2E2E"/>
</g>
<defs>
<clipPath id="clip0_424_723">
<rect width="141" height="138" fill="white"/>
</clipPath>
</defs>
</svg>
