<svg width="140" height="140" viewBox="0 0 140 140" fill="none" xmlns="http://www.w3.org/2000/svg">
<path d="M48.125 39.375C50.5412 39.375 52.5 37.4162 52.5 35C52.5 32.5838 50.5412 30.625 48.125 30.625C45.7088 30.625 43.75 32.5838 43.75 35C43.75 37.4162 45.7088 39.375 48.125 39.375Z" fill="#2E2E2E"/>
<path d="M48.125 74.375C50.5412 74.375 52.5 72.4162 52.5 70C52.5 67.5838 50.5412 65.625 48.125 65.625C45.7088 65.625 43.75 67.5838 43.75 70C43.75 72.4162 45.7088 74.375 48.125 74.375Z" fill="#2E2E2E"/>
<path d="M48.125 109.375C50.5412 109.375 52.5 107.416 52.5 105C52.5 102.584 50.5412 100.625 48.125 100.625C45.7088 100.625 43.75 102.584 43.75 105C43.75 107.416 45.7088 109.375 48.125 109.375Z" fill="#2E2E2E"/>
<path d="M105 13.125H35C32.6794 13.125 30.4538 14.0469 28.8128 15.6878C27.1719 17.3288 26.25 19.5544 26.25 21.875V118.125C26.25 120.446 27.1719 122.671 28.8128 124.312C30.4538 125.953 32.6794 126.875 35 126.875H78.75V118.125H35V91.875H113.75V21.875C113.75 19.5544 112.828 17.3288 111.187 15.6878C109.546 14.0469 107.321 13.125 105 13.125ZM105 83.125H35V56.875H105V83.125ZM105 48.125H35V21.875H105V48.125Z" fill="#2E2E2E"/>
<path d="M126.875 106.816L120.689 100.625L109.375 111.943L98.0612 100.625L91.875 106.816L103.189 118.125L91.875 129.439L98.0612 135.625L109.375 124.311L120.689 135.625L126.875 129.439L115.561 118.125L126.875 106.816Z" fill="#2E2E2E"/>
</svg>
